<svg xmlns="http://www.w3.org/2000/svg" viewBox="0 0 500 500" role="img" aria-label="MARIO WEB DESIGN vertical logo">
  <defs>
    <linearGradient id="mario-blue" x1="150" y1="65" x2="345" y2="265" gradientUnits="userSpaceOnUse">
      <stop offset="0" stop-color="#0067e6"/>
      <stop offset="0.42" stop-color="#16c9f3"/>
      <stop offset="1" stop-color="#0651d2"/>
    </linearGradient>
    <linearGradient id="mario-navy" x1="140" y1="70" x2="365" y2="285" gradientUnits="userSpaceOnUse">
      <stop offset="0" stop-color="#063fc0"/>
      <stop offset="1" stop-color="#061b73"/>
    </linearGradient>
  </defs>
  <rect width="500" height="500" fill="#fff"/>
  <g transform="translate(110 54) scale(2.34)">
    <path d="M14 80V6h14v74H14Z" fill="url(#mario-navy)"/>
    <path d="M92 80V6h14v74H92Z" fill="url(#mario-navy)"/>
    <path d="M14 6h15l31 39L91 6h15L60 64 14 6Z" fill="url(#mario-blue)"/>
    <path d="M40 49V30l20 25 20-25v19L60 74 40 49Z" fill="url(#mario-navy)"/>
  </g>
  <g fill="#071b75" transform="translate(107 314)">
    <rect x="0" y="0" width="9" height="9"/>
    <rect x="20" y="0" width="9" height="9"/>
    <path d="M14.5 16l4.2 12.8h13.5l-10.9 7.9 4.2 12.8-11-7.9-10.9 7.9 4.2-12.8-10.9-7.9h13.5L14.5 16Z"/>
  </g>
  <text x="154" y="355" fill="#071b75" font-family="Arial, Helvetica, sans-serif" font-size="58" font-weight="500" letter-spacing="24">MARIO</text>
  <line x1="151" y1="407" x2="226" y2="407" stroke="#071b75" stroke-width="4"/>
  <line x1="342" y1="407" x2="417" y2="407" stroke="#071b75" stroke-width="4"/>
  <text x="238" y="417" fill="#071b75" font-family="Arial, Helvetica, sans-serif" font-size="24" font-weight="700" letter-spacing="13">WEB DESIGN</text>
</svg>
